<svg xmlns="http://www.w3.org/2000/svg" viewBox="0 0 30 30">
  <path d="M6.776,22.737l-0.129-.129L1.18,17.037,2.715,15.5l3.026,3.121V7.464H7.908V18.651l3.367-3.266,1.53,1.533L6.938,22.656Zm17.873-.054H22.482V11.5l-3.367,3.267-1.53-1.532,5.9-5.752,0.148-.049,0.111,0.111L29.21,13.11l-1.535,1.535-3.026-3.12V22.683ZM13.083,30H0.814A0.972,0.972,0,0,1,0,28.927a0.987,0.987,0,0,1,.814-1.094H13.083a0.963,0.963,0,0,1,.814,1.094A0.949,0.949,0,0,1,13.083,30Zm16.1-27.833H16.917A0.963,0.963,0,0,1,16.1,1.074,0.949,0.949,0,0,1,16.917,0H29.186A0.972,0.972,0,0,1,30,1.074,0.987,0.987,0,0,1,29.186,2.167Z"></path>
</svg>
