<svg xmlns="http://www.w3.org/2000/svg" viewBox="0 0 30 30">
	<path d="M29.57,10.81,15.61.21a1,1,0,0,0-1.23,0L.43,10.79A1.13,1.13,0,0,0,.2,12.32l0,.05a1,1,0,0,0,1.43.19l1.42-1.07V28.9h0a1.07,1.07,0,0,0,1,1.1h7.5a1.07,1.07,0,0,0,1-1.1V18.73H17.3V28.9h0a1.07,1.07,0,0,0,1,1.1h7.58a1.07,1.07,0,0,0,1-1.1V11.56l1.35,1a1,1,0,0,0,.62.21,1,1,0,0,0,.85-.45A1.13,1.13,0,0,0,29.57,10.81Zm-4.69-.39V27.8H19.4V17.63h0a1.07,1.07,0,0,0-1-1.1H11.63a1.07,1.07,0,0,0-1,1.1V27.81H5.17V10.42h0A1.06,1.06,0,0,0,5.08,10L15,2.45,25,10A1,1,0,0,0,24.88,10.42Z" />
</svg>
